<mxfile host="app.diagrams.net" modified="2021-05-25T20:31:52.869Z" agent="5.0 (X11)" etag="DEGfdWGGW6ilCerqqtSZ" version="14.7.1" type="github">
  <diagram name="Page-1" id="efa7a0a1-bf9b-a30e-e6df-94a7791c09e9">
    <mxGraphModel dx="820" dy="452" grid="1" gridSize="10" guides="1" tooltips="1" connect="1" arrows="1" fold="1" page="1" pageScale="1" pageWidth="826" pageHeight="1169" background="none" math="0" shadow="0">
      <root>
        <mxCell id="0" />
        <mxCell id="1" parent="0" />
        <mxCell id="EUdEwBnZF1Pm1VuQRE6t-114" value="User" style="swimlane;html=1;fontStyle=0;childLayout=stackLayout;horizontal=1;startSize=26;fillColor=#e0e0e0;horizontalStack=0;resizeParent=1;resizeLast=0;collapsible=1;marginBottom=0;swimlaneFillColor=#ffffff;" vertex="1" parent="1">
          <mxGeometry x="40" y="120" width="140" height="130" as="geometry" />
        </mxCell>
        <mxCell id="EUdEwBnZF1Pm1VuQRE6t-115" value="UserID" style="shape=partialRectangle;top=0;left=0;right=0;bottom=1;html=1;align=left;verticalAlign=top;fillColor=none;spacingLeft=34;spacingRight=4;whiteSpace=wrap;overflow=hidden;rotatable=0;points=[[0,0.5],[1,0.5]];portConstraint=eastwest;dropTarget=0;fontStyle=5" vertex="1" parent="EUdEwBnZF1Pm1VuQRE6t-114">
          <mxGeometry y="26" width="140" height="26" as="geometry" />
        </mxCell>
        <mxCell id="EUdEwBnZF1Pm1VuQRE6t-116" value="PK" style="shape=partialRectangle;top=0;left=0;bottom=0;html=1;fillColor=none;align=left;verticalAlign=top;spacingLeft=4;spacingRight=4;whiteSpace=wrap;overflow=hidden;rotatable=0;points=[];portConstraint=eastwest;part=1;fontStyle=1" vertex="1" connectable="0" parent="EUdEwBnZF1Pm1VuQRE6t-115">
          <mxGeometry width="30" height="26" as="geometry" />
        </mxCell>
        <mxCell id="EUdEwBnZF1Pm1VuQRE6t-117" value="AccountName" style="shape=partialRectangle;top=0;left=0;right=0;bottom=0;html=1;align=left;verticalAlign=top;fillColor=none;spacingLeft=34;spacingRight=4;whiteSpace=wrap;overflow=hidden;rotatable=0;points=[[0,0.5],[1,0.5]];portConstraint=eastwest;dropTarget=0;" vertex="1" parent="EUdEwBnZF1Pm1VuQRE6t-114">
          <mxGeometry y="52" width="140" height="26" as="geometry" />
        </mxCell>
        <mxCell id="EUdEwBnZF1Pm1VuQRE6t-118" value="" style="shape=partialRectangle;top=0;left=0;bottom=0;html=1;fillColor=none;align=left;verticalAlign=top;spacingLeft=4;spacingRight=4;whiteSpace=wrap;overflow=hidden;rotatable=0;points=[];portConstraint=eastwest;part=1;" vertex="1" connectable="0" parent="EUdEwBnZF1Pm1VuQRE6t-117">
          <mxGeometry width="30" height="26" as="geometry" />
        </mxCell>
        <mxCell id="EUdEwBnZF1Pm1VuQRE6t-119" value="FullName" style="shape=partialRectangle;top=0;left=0;right=0;bottom=0;html=1;align=left;verticalAlign=top;fillColor=none;spacingLeft=34;spacingRight=4;whiteSpace=wrap;overflow=hidden;rotatable=0;points=[[0,0.5],[1,0.5]];portConstraint=eastwest;dropTarget=0;" vertex="1" parent="EUdEwBnZF1Pm1VuQRE6t-114">
          <mxGeometry y="78" width="140" height="26" as="geometry" />
        </mxCell>
        <mxCell id="EUdEwBnZF1Pm1VuQRE6t-120" value="" style="shape=partialRectangle;top=0;left=0;bottom=0;html=1;fillColor=none;align=left;verticalAlign=top;spacingLeft=4;spacingRight=4;whiteSpace=wrap;overflow=hidden;rotatable=0;points=[];portConstraint=eastwest;part=1;" vertex="1" connectable="0" parent="EUdEwBnZF1Pm1VuQRE6t-119">
          <mxGeometry width="30" height="26" as="geometry" />
        </mxCell>
        <mxCell id="EUdEwBnZF1Pm1VuQRE6t-121" value="Active" style="shape=partialRectangle;top=0;left=0;right=0;bottom=0;html=1;align=left;verticalAlign=top;fillColor=none;spacingLeft=34;spacingRight=4;whiteSpace=wrap;overflow=hidden;rotatable=0;points=[[0,0.5],[1,0.5]];portConstraint=eastwest;dropTarget=0;" vertex="1" parent="EUdEwBnZF1Pm1VuQRE6t-114">
          <mxGeometry y="104" width="140" height="26" as="geometry" />
        </mxCell>
        <mxCell id="EUdEwBnZF1Pm1VuQRE6t-122" value="" style="shape=partialRectangle;top=0;left=0;bottom=0;html=1;fillColor=none;align=left;verticalAlign=top;spacingLeft=4;spacingRight=4;whiteSpace=wrap;overflow=hidden;rotatable=0;points=[];portConstraint=eastwest;part=1;" vertex="1" connectable="0" parent="EUdEwBnZF1Pm1VuQRE6t-121">
          <mxGeometry width="30" height="26" as="geometry" />
        </mxCell>
        <mxCell id="EUdEwBnZF1Pm1VuQRE6t-123" value="UserUserRole" style="swimlane;html=1;fontStyle=0;childLayout=stackLayout;horizontal=1;startSize=26;fillColor=#e0e0e0;horizontalStack=0;resizeParent=1;resizeLast=0;collapsible=1;marginBottom=0;swimlaneFillColor=#ffffff;" vertex="1" parent="1">
          <mxGeometry x="240" y="94" width="160" height="156" as="geometry">
            <mxRectangle x="240" y="94" width="102" height="26" as="alternateBounds" />
          </mxGeometry>
        </mxCell>
        <mxCell id="EUdEwBnZF1Pm1VuQRE6t-124" value="UserID" style="shape=partialRectangle;top=0;left=0;right=0;bottom=0;html=1;align=left;verticalAlign=top;fillColor=none;spacingLeft=60;spacingRight=4;whiteSpace=wrap;overflow=hidden;rotatable=0;points=[[0,0.5],[1,0.5]];portConstraint=eastwest;dropTarget=0;fontStyle=5" vertex="1" parent="EUdEwBnZF1Pm1VuQRE6t-123">
          <mxGeometry y="26" width="160" height="26" as="geometry" />
        </mxCell>
        <mxCell id="EUdEwBnZF1Pm1VuQRE6t-125" value="PK,FK1" style="shape=partialRectangle;top=0;left=0;bottom=0;html=1;fillColor=none;align=left;verticalAlign=top;spacingLeft=4;spacingRight=4;whiteSpace=wrap;overflow=hidden;rotatable=0;points=[];portConstraint=eastwest;part=1;fontStyle=1" vertex="1" connectable="0" parent="EUdEwBnZF1Pm1VuQRE6t-124">
          <mxGeometry width="56" height="26" as="geometry" />
        </mxCell>
        <mxCell id="EUdEwBnZF1Pm1VuQRE6t-126" value="UserRoleID" style="shape=partialRectangle;top=0;left=0;right=0;bottom=1;html=1;align=left;verticalAlign=top;fillColor=none;spacingLeft=60;spacingRight=4;whiteSpace=wrap;overflow=hidden;rotatable=0;points=[[0,0.5],[1,0.5]];portConstraint=eastwest;dropTarget=0;fontStyle=5" vertex="1" parent="EUdEwBnZF1Pm1VuQRE6t-123">
          <mxGeometry y="52" width="160" height="26" as="geometry" />
        </mxCell>
        <mxCell id="EUdEwBnZF1Pm1VuQRE6t-127" value="PK,FK2" style="shape=partialRectangle;top=0;left=0;bottom=0;html=1;fillColor=none;align=left;verticalAlign=top;spacingLeft=4;spacingRight=4;whiteSpace=wrap;overflow=hidden;rotatable=0;points=[];portConstraint=eastwest;part=1;fontStyle=1" vertex="1" connectable="0" parent="EUdEwBnZF1Pm1VuQRE6t-126">
          <mxGeometry width="56" height="26" as="geometry" />
        </mxCell>
        <mxCell id="EUdEwBnZF1Pm1VuQRE6t-128" value="BeginDate" style="shape=partialRectangle;top=0;left=0;right=0;bottom=0;html=1;align=left;verticalAlign=top;fillColor=none;spacingLeft=60;spacingRight=4;whiteSpace=wrap;overflow=hidden;rotatable=0;points=[[0,0.5],[1,0.5]];portConstraint=eastwest;dropTarget=0;" vertex="1" parent="EUdEwBnZF1Pm1VuQRE6t-123">
          <mxGeometry y="78" width="160" height="26" as="geometry" />
        </mxCell>
        <mxCell id="EUdEwBnZF1Pm1VuQRE6t-129" value="" style="shape=partialRectangle;top=0;left=0;bottom=0;html=1;fillColor=none;align=left;verticalAlign=top;spacingLeft=4;spacingRight=4;whiteSpace=wrap;overflow=hidden;rotatable=0;points=[];portConstraint=eastwest;part=1;" vertex="1" connectable="0" parent="EUdEwBnZF1Pm1VuQRE6t-128">
          <mxGeometry width="56" height="26" as="geometry" />
        </mxCell>
        <mxCell id="EUdEwBnZF1Pm1VuQRE6t-130" value="EndDate" style="shape=partialRectangle;top=0;left=0;right=0;bottom=0;html=1;align=left;verticalAlign=top;fillColor=none;spacingLeft=60;spacingRight=4;whiteSpace=wrap;overflow=hidden;rotatable=0;points=[[0,0.5],[1,0.5]];portConstraint=eastwest;dropTarget=0;" vertex="1" parent="EUdEwBnZF1Pm1VuQRE6t-123">
          <mxGeometry y="104" width="160" height="26" as="geometry" />
        </mxCell>
        <mxCell id="EUdEwBnZF1Pm1VuQRE6t-131" value="" style="shape=partialRectangle;top=0;left=0;bottom=0;html=1;fillColor=none;align=left;verticalAlign=top;spacingLeft=4;spacingRight=4;whiteSpace=wrap;overflow=hidden;rotatable=0;points=[];portConstraint=eastwest;part=1;" vertex="1" connectable="0" parent="EUdEwBnZF1Pm1VuQRE6t-130">
          <mxGeometry width="56" height="26" as="geometry" />
        </mxCell>
        <mxCell id="EUdEwBnZF1Pm1VuQRE6t-132" value="CreatedDate" style="shape=partialRectangle;top=0;left=0;right=0;bottom=0;html=1;align=left;verticalAlign=top;fillColor=none;spacingLeft=60;spacingRight=4;whiteSpace=wrap;overflow=hidden;rotatable=0;points=[[0,0.5],[1,0.5]];portConstraint=eastwest;dropTarget=0;" vertex="1" parent="EUdEwBnZF1Pm1VuQRE6t-123">
          <mxGeometry y="130" width="160" height="26" as="geometry" />
        </mxCell>
        <mxCell id="EUdEwBnZF1Pm1VuQRE6t-133" value="" style="shape=partialRectangle;top=0;left=0;bottom=0;html=1;fillColor=none;align=left;verticalAlign=top;spacingLeft=4;spacingRight=4;whiteSpace=wrap;overflow=hidden;rotatable=0;points=[];portConstraint=eastwest;part=1;" vertex="1" connectable="0" parent="EUdEwBnZF1Pm1VuQRE6t-132">
          <mxGeometry width="56" height="26" as="geometry" />
        </mxCell>
        <mxCell id="EUdEwBnZF1Pm1VuQRE6t-134" value="UserRole" style="swimlane;html=1;fontStyle=0;childLayout=stackLayout;horizontal=1;startSize=26;fillColor=#e0e0e0;horizontalStack=0;resizeParent=1;resizeLast=0;collapsible=1;marginBottom=0;swimlaneFillColor=#ffffff;" vertex="1" parent="1">
          <mxGeometry x="460" y="120" width="140" height="130" as="geometry" />
        </mxCell>
        <mxCell id="EUdEwBnZF1Pm1VuQRE6t-135" value="UserRoleID" style="shape=partialRectangle;top=0;left=0;right=0;bottom=1;html=1;align=left;verticalAlign=top;fillColor=none;spacingLeft=34;spacingRight=4;whiteSpace=wrap;overflow=hidden;rotatable=0;points=[[0,0.5],[1,0.5]];portConstraint=eastwest;dropTarget=0;fontStyle=5" vertex="1" parent="EUdEwBnZF1Pm1VuQRE6t-134">
          <mxGeometry y="26" width="140" height="26" as="geometry" />
        </mxCell>
        <mxCell id="EUdEwBnZF1Pm1VuQRE6t-136" value="PK" style="shape=partialRectangle;top=0;left=0;bottom=0;html=1;fillColor=none;align=left;verticalAlign=top;spacingLeft=4;spacingRight=4;whiteSpace=wrap;overflow=hidden;rotatable=0;points=[];portConstraint=eastwest;part=1;fontStyle=1" vertex="1" connectable="0" parent="EUdEwBnZF1Pm1VuQRE6t-135">
          <mxGeometry width="30" height="26" as="geometry" />
        </mxCell>
        <mxCell id="EUdEwBnZF1Pm1VuQRE6t-137" value="UserRoleName" style="shape=partialRectangle;top=0;left=0;right=0;bottom=0;html=1;align=left;verticalAlign=top;fillColor=none;spacingLeft=34;spacingRight=4;whiteSpace=wrap;overflow=hidden;rotatable=0;points=[[0,0.5],[1,0.5]];portConstraint=eastwest;dropTarget=0;" vertex="1" parent="EUdEwBnZF1Pm1VuQRE6t-134">
          <mxGeometry y="52" width="140" height="26" as="geometry" />
        </mxCell>
        <mxCell id="EUdEwBnZF1Pm1VuQRE6t-138" value="" style="shape=partialRectangle;top=0;left=0;bottom=0;html=1;fillColor=none;align=left;verticalAlign=top;spacingLeft=4;spacingRight=4;whiteSpace=wrap;overflow=hidden;rotatable=0;points=[];portConstraint=eastwest;part=1;" vertex="1" connectable="0" parent="EUdEwBnZF1Pm1VuQRE6t-137">
          <mxGeometry width="30" height="26" as="geometry" />
        </mxCell>
        <mxCell id="EUdEwBnZF1Pm1VuQRE6t-139" value="Description" style="shape=partialRectangle;top=0;left=0;right=0;bottom=0;html=1;align=left;verticalAlign=top;fillColor=none;spacingLeft=34;spacingRight=4;whiteSpace=wrap;overflow=hidden;rotatable=0;points=[[0,0.5],[1,0.5]];portConstraint=eastwest;dropTarget=0;" vertex="1" parent="EUdEwBnZF1Pm1VuQRE6t-134">
          <mxGeometry y="78" width="140" height="26" as="geometry" />
        </mxCell>
        <mxCell id="EUdEwBnZF1Pm1VuQRE6t-140" value="" style="shape=partialRectangle;top=0;left=0;bottom=0;html=1;fillColor=none;align=left;verticalAlign=top;spacingLeft=4;spacingRight=4;whiteSpace=wrap;overflow=hidden;rotatable=0;points=[];portConstraint=eastwest;part=1;" vertex="1" connectable="0" parent="EUdEwBnZF1Pm1VuQRE6t-139">
          <mxGeometry width="30" height="26" as="geometry" />
        </mxCell>
        <mxCell id="EUdEwBnZF1Pm1VuQRE6t-141" value="Active" style="shape=partialRectangle;top=0;left=0;right=0;bottom=0;html=1;align=left;verticalAlign=top;fillColor=none;spacingLeft=34;spacingRight=4;whiteSpace=wrap;overflow=hidden;rotatable=0;points=[[0,0.5],[1,0.5]];portConstraint=eastwest;dropTarget=0;" vertex="1" parent="EUdEwBnZF1Pm1VuQRE6t-134">
          <mxGeometry y="104" width="140" height="26" as="geometry" />
        </mxCell>
        <mxCell id="EUdEwBnZF1Pm1VuQRE6t-142" value="" style="shape=partialRectangle;top=0;left=0;bottom=0;html=1;fillColor=none;align=left;verticalAlign=top;spacingLeft=4;spacingRight=4;whiteSpace=wrap;overflow=hidden;rotatable=0;points=[];portConstraint=eastwest;part=1;" vertex="1" connectable="0" parent="EUdEwBnZF1Pm1VuQRE6t-141">
          <mxGeometry width="30" height="26" as="geometry" />
        </mxCell>
        <mxCell id="EUdEwBnZF1Pm1VuQRE6t-143" style="edgeStyle=orthogonalEdgeStyle;rounded=0;html=1;endArrow=block;endFill=1;" edge="1" parent="1" source="EUdEwBnZF1Pm1VuQRE6t-123" target="EUdEwBnZF1Pm1VuQRE6t-114">
          <mxGeometry relative="1" as="geometry">
            <Array as="points">
              <mxPoint x="210" y="200" />
              <mxPoint x="210" y="200" />
            </Array>
          </mxGeometry>
        </mxCell>
        <mxCell id="EUdEwBnZF1Pm1VuQRE6t-144" style="edgeStyle=orthogonalEdgeStyle;rounded=0;html=1;endArrow=block;endFill=1;" edge="1" parent="1" source="EUdEwBnZF1Pm1VuQRE6t-123" target="EUdEwBnZF1Pm1VuQRE6t-134">
          <mxGeometry relative="1" as="geometry">
            <Array as="points">
              <mxPoint x="430" y="200" />
              <mxPoint x="430" y="200" />
            </Array>
          </mxGeometry>
        </mxCell>
      </root>
    </mxGraphModel>
  </diagram>
</mxfile>
